<svg viewBox="0 0 9.3333 16" fill="none" xmlns="http://www.w3.org/2000/svg" xmlns:xlink="http://www.w3.org/1999/xlink" x="0" y="0"><path id="Vector_36" d="M0.5,4.667v6.666c0,1.105 0.439,2.165 1.22,2.947c0.782,0.781 1.842,1.22 2.947,1.22c1.105,0 2.165,-0.439 2.946,-1.22c0.781,-0.782 1.22,-1.842 1.22,-2.947v-7.916c0,-0.774 -0.307,-1.516 -0.854,-2.063c-0.547,-0.547 -1.289,-0.854 -2.062,-0.854c-0.774,0 -1.516,0.307 -2.063,0.854c-0.547,0.547 -0.854,1.289 -0.854,2.063v7.083c0,0.442 0.176,0.866 0.488,1.179c0.313,0.312 0.737,0.488 1.179,0.488c0.442,0 0.866,-0.176 1.178,-0.488c0.313,-0.313 0.488,-0.737 0.488,-1.179v-5.833" stroke="#858585" stroke-linecap="round" stroke-linejoin="round"/></svg>