<svg viewBox="0 0 16 16" fill="none" xmlns="http://www.w3.org/2000/svg" xmlns:xlink="http://www.w3.org/1999/xlink" x="0" y="0"><g id="Layer_1_16">
<path id="Vector_52" d="M3.1564,2.6663v-0.733c0,-0.233 0.09,-0.456 0.25,-0.62c0.17,-0.164 0.39,-0.257 0.62,-0.257c0.24,0 0.46,0.093 0.62,0.257c0.17,0.164 0.26,0.387 0.26,0.62v0.723h2.24c0,-0.276 0,-0.546 0,-0.813c0.01,-0.117 0.04,-0.233 0.09,-0.339c0.05,-0.106 0.12,-0.201 0.21,-0.279c0.09,-0.077 0.19,-0.136 0.3,-0.173c0.11,-0.036 0.23,-0.05 0.35,-0.039c0.22,0.019 0.42,0.121 0.57,0.285c0.15,0.163 0.23,0.377 0.23,0.598c0,0.25 0,0.5 0,0.76h2.23v-0.176c0,-0.251 0,-0.501 0.03,-0.75c0.04,-0.206 0.15,-0.39 0.31,-0.519c0.17,-0.129 0.37,-0.195 0.58,-0.185c0.21,0.009 0.41,0.094 0.56,0.238c0.15,0.144 0.25,0.338 0.27,0.546c0.01,0.223 0,0.446 0,0.666v0.19h0.54c0.18,-0.007 0.37,0.024 0.54,0.091c0.17,0.066 0.32,0.167 0.45,0.297c0.13,0.129 0.23,0.283 0.3,0.453c0.07,0.171 0.1,0.353 0.09,0.536v9.593c0.01,0.182 -0.02,0.363 -0.09,0.533c-0.06,0.169 -0.17,0.323 -0.29,0.452c-0.13,0.129 -0.29,0.23 -0.45,0.297c-0.17,0.068 -0.35,0.1 -0.54,0.095h-10.87c-0.18,0.005 -0.36,-0.027 -0.53,-0.095c-0.17,-0.067 -0.32,-0.168 -0.45,-0.297c-0.13,-0.129 -0.23,-0.283 -0.3,-0.452c-0.06,-0.17 -0.1,-0.351 -0.09,-0.533v-9.606c-0.01,-0.183 0.03,-0.366 0.09,-0.536c0.07,-0.17 0.17,-0.325 0.3,-0.454c0.13,-0.129 0.29,-0.23 0.46,-0.297c0.17,-0.066 0.35,-0.097 0.53,-0.09zM14.3364,5.7233h-12.65v7.823c-0.02,0.129 0,0.261 0.04,0.384c0.04,0.124 0.11,0.236 0.2,0.328c0.09,0.092 0.21,0.162 0.33,0.204c0.12,0.042 0.25,0.055 0.38,0.038h10.72c0.13,0.017 0.26,0.004 0.39,-0.037c0.12,-0.041 0.23,-0.111 0.33,-0.203c0.09,-0.091 0.16,-0.203 0.2,-0.327c0.04,-0.123 0.06,-0.254 0.04,-0.383v-7.827zM3.1764,3.1533h-0.65c-0.22,0.003 -0.43,0.092 -0.58,0.248c-0.16,0.156 -0.24,0.366 -0.24,0.585c0,0.287 0,0.574 0,0.857v0.38h12.63v-0.153c0,-0.387 0,-0.774 0,-1.157c-0.01,-0.198 -0.1,-0.384 -0.24,-0.524c-0.14,-0.139 -0.33,-0.221 -0.53,-0.229c-0.62,0 -1.25,0 -1.87,0c0,0 0,0 -0.04,0.023v0.3c0,0.427 0.13,0.543 0.55,0.503c0.03,-0.005 0.06,-0.005 0.09,0.002c0.03,0.006 0.06,0.019 0.09,0.037c0.02,0.018 0.04,0.041 0.06,0.067c0.02,0.027 0.03,0.057 0.03,0.088c0.02,0.058 0.01,0.121 -0.02,0.174c-0.03,0.053 -0.08,0.092 -0.14,0.109c-0.04,0.019 -0.09,0.031 -0.15,0.037c-0.12,0.017 -0.25,0.007 -0.37,-0.029c-0.12,-0.036 -0.23,-0.098 -0.33,-0.18c-0.09,-0.083 -0.17,-0.185 -0.22,-0.3c-0.05,-0.114 -0.08,-0.239 -0.08,-0.365c0,-0.156 0,-0.31 0,-0.466h-3.5c0,0.19 0,0.37 0,0.55c0.01,0.068 0.04,0.132 0.08,0.183c0.05,0.051 0.11,0.084 0.18,0.097c0.08,0.015 0.17,0.015 0.26,0c0.06,-0.013 0.12,-0.003 0.17,0.028c0.06,0.031 0.1,0.08 0.11,0.138c0.01,0.028 0.02,0.059 0.02,0.089c0,0.03 -0.01,0.06 -0.02,0.088c-0.01,0.027 -0.03,0.052 -0.05,0.073c-0.02,0.021 -0.05,0.037 -0.08,0.047c-0.06,0.026 -0.12,0.044 -0.18,0.053c-0.12,0.019 -0.24,0.012 -0.36,-0.02c-0.12,-0.033 -0.23,-0.09 -0.32,-0.168c-0.1,-0.078 -0.17,-0.175 -0.23,-0.285c-0.05,-0.111 -0.08,-0.231 -0.09,-0.353c0,-0.17 0,-0.334 0,-0.51h-3.49c0,0.143 0,0.28 0,0.413c0,0.317 0.18,0.46 0.49,0.423c0.08,-0.015 0.16,-0.001 0.23,0.04c0.03,0.029 0.06,0.065 0.07,0.105c0.02,0.04 0.02,0.083 0.02,0.125c-0.02,0.044 -0.04,0.084 -0.07,0.118c-0.04,0.034 -0.07,0.061 -0.12,0.079c-0.12,0.039 -0.26,0.048 -0.39,0.028c-0.13,-0.021 -0.25,-0.07 -0.36,-0.145c-0.11,-0.075 -0.2,-0.174 -0.26,-0.289c-0.06,-0.115 -0.1,-0.243 -0.11,-0.374c-0.02,-0.177 -0.01,-0.36 -0.01,-0.54zM7.6664,2.6433h0.75c0,-0.27 0,-0.53 0,-0.787c0,-0.098 -0.05,-0.189 -0.12,-0.256c-0.07,-0.066 -0.17,-0.101 -0.27,-0.097c-0.09,0.003 -0.18,0.041 -0.25,0.108c-0.06,0.067 -0.1,0.158 -0.1,0.252c-0.03,0.257 -0.01,0.51 -0.01,0.78zM12.3964,2.6433c0,-0.28 0,-0.557 0,-0.83c-0.01,-0.083 -0.05,-0.159 -0.11,-0.216c-0.06,-0.057 -0.14,-0.09 -0.22,-0.094c-0.09,-0.013 -0.17,0.007 -0.24,0.056c-0.07,0.049 -0.12,0.123 -0.14,0.207c-0.02,0.29 0,0.587 0,0.877zM3.6764,2.6433h0.75c0,-0.27 0,-0.53 0,-0.79c0,-0.099 -0.04,-0.194 -0.11,-0.264c-0.07,-0.07 -0.17,-0.109 -0.27,-0.109c-0.1,0 -0.19,0.039 -0.26,0.109c-0.07,0.07 -0.11,0.165 -0.11,0.264c-0.01,0.267 -0.01,0.523 -0.01,0.79z" fill="currentColor"/>
<path id="Vector_53" d="M11.3364,6.8733h0.75c0.2,0 0.29,0.087 0.29,0.293c0,0.445 0,0.898 0,1.36c0,0.214 -0.09,0.304 -0.3,0.304h-1.5c-0.22,0 -0.31,-0.094 -0.31,-0.307c0,-0.453 0,-0.903 0,-1.357c0,-0.203 0.09,-0.293 0.3,-0.293zM10.7764,7.3833v0.95h1.09v-0.943z" fill="currentColor"/>
<path id="Vector_54" d="M4.2164,6.8733h0.75c0.21,0 0.3,0.087 0.3,0.29c0,0.46 0,0.917 0,1.377c0,0.196 -0.09,0.29 -0.29,0.29h-1.53c-0.2,0 -0.29,-0.097 -0.29,-0.304c0,-0.453 0,-0.903 0,-1.356c0,-0.207 0.09,-0.297 0.29,-0.297zM3.6664,7.3803v0.953h1.09v-0.947z" fill="currentColor"/>
<path id="Vector_55" d="M7.7564,6.8733h0.77c0.19,0 0.29,0.09 0.29,0.283c0,0.463 0,0.926 0,1.39c0,0.038 0,0.077 -0.01,0.113c-0.02,0.037 -0.04,0.07 -0.06,0.097c-0.03,0.027 -0.06,0.048 -0.1,0.061c-0.04,0.013 -0.07,0.017 -0.11,0.013h-1.54c-0.19,0 -0.28,-0.097 -0.28,-0.294c0,-0.444 0,-0.897 0,-1.36c0,-0.216 0.09,-0.303 0.3,-0.303zM8.3064,7.3833h-1.09v0.95h1.09z" fill="currentColor"/>
<path id="Vector_56" d="M7.7464,12.3763h-0.75c-0.19,0 -0.29,-0.086 -0.29,-0.283c0,-0.463 0,-0.927 0,-1.39c-0.01,-0.038 0,-0.077 0.01,-0.113c0.01,-0.037 0.03,-0.07 0.06,-0.097c0.03,-0.027 0.06,-0.047 0.1,-0.058c0.03,-0.012 0.07,-0.015 0.11,-0.009c0.52,0 1.03,0 1.55,0c0.19,0 0.28,0.097 0.28,0.294c0,0.46 0,0.916 0,1.373c0.01,0.039 0,0.079 -0.01,0.117c-0.01,0.037 -0.03,0.072 -0.06,0.1c-0.03,0.028 -0.06,0.049 -0.1,0.061c-0.04,0.012 -0.08,0.015 -0.12,0.009zM7.2064,10.9333v0.933h1.1v-0.933z" fill="currentColor"/>
<path id="Vector_57" d="M11.3064,12.3763h-0.77c-0.19,0 -0.28,-0.09 -0.28,-0.283c0,-0.462 0,-0.925 0,-1.39c-0.01,-0.037 -0.01,-0.074 0,-0.11c0.02,-0.036 0.04,-0.068 0.06,-0.095c0.03,-0.027 0.06,-0.047 0.09,-0.06c0.04,-0.012 0.08,-0.016 0.11,-0.012c0.53,0 1.05,0 1.58,0c0.04,-0.004 0.07,0 0.11,0.012c0.03,0.011 0.06,0.03 0.09,0.055c0.02,0.025 0.04,0.055 0.05,0.089c0.02,0.033 0.02,0.069 0.02,0.104c0,0.474 0,0.947 0,1.424c0,0.183 -0.1,0.266 -0.29,0.266zM10.7664,10.9333v0.94h1.09v-0.94z" fill="currentColor"/>
<path id="Vector_58" d="M4.1964,12.3763h-0.75c-0.2,0 -0.29,-0.09 -0.29,-0.296c0,-0.454 0,-0.907 0,-1.357c0,-0.207 0.08,-0.297 0.29,-0.3h1.53c0.2,0 0.29,0.093 0.29,0.29c0,0.46 0,0.917 0,1.377c0,0.203 -0.09,0.286 -0.3,0.286zM3.6664,11.8703h1.09v-0.937h-1.09z" fill="currentColor"/>
</g></svg>